# xmcd
#
# Track frame offsets:
#	150
#	22499
#	45806
#	67749
#	84851
#	99516
#	124676
#	142221
#	157466
#	162741
#
# Disc length: 2387 seconds
#
# Revision: 24
# Processed by: cddbd v1.5.2PL0 Copyright (c) Steve Scherf et al.
# Submitted via: Jack! The Knife 20 Magnifico
#
DISCID=8809510a
DTITLE=Savatage - Hall Of The Mountain King
DYEAR=1987
DGENRE=Heavy Metal
TTITLE0=24 Hrs. Ago
TTITLE1=Beyond The Doors Of The Dark
TTITLE2=Legions
TTITLE3=Strange Wings
TTITLE4=Prelude To Madness
TTITLE5=Hall Of The Mountain King
TTITLE6=The Price You Pay
TTITLE7=White Witch
TTITLE8=Last Dawn
TTITLE9=Devastation
EXTD=Paul O'Neill
EXTT0=C. Oliva, J. Oliva, Middleton, O'Neill
EXTT1=Jon Oliva
EXTT2=C. Oliva, J. Oliva
EXTT3=C. Oliva, J. Oliva, O'Neill
EXTT4=Grieg, C. Oliva, O'Neill
EXTT5=C. Oliva, J. Oliva, Middleton, O'Neill
EXTT6=C. Oliva, J. Oliva, Wacholz
EXTT7=C. Oliva, J. Oliva
EXTT8=C. Oliva
EXTT9=C. Oliva, J. Oliva
PLAYORDER=
